<?xml version="1.0" encoding="utf-8"?>
<?xml-stylesheet type="text/xsl" href="rss1.xsl"?>
<rss version="2.0" xmlns:atom="http://www.w3.org/2005/Atom" xmlns:content="http://purl.org/rss/1.0/modules/content/" xmlns:dc="http://purl.org/dc/elements/1.1/" xmlns:media="http://search.yahoo.com/mrss/">
<channel>
 <title>Getty</title>
 <link>http://www.gettyimg.com/</link>
 <atom:link href="http://www.gettyimg.com/" rel="self" type="application/rss+xml" />

 
                <item>
                <title><![CDATA[【Music Videos】Marisa Turner - Who's Gonna Kiss That Man (Remix Pizza Express Radio Mix) (VJ-RoGeRs Video Edit)]]></title>
                <link><![CDATA[https://sharemania.us/threads/marisa-turner-whos-gonna-kiss-that-man-remix-pizza-express-radio-mix-vj-rogers-video-edit.246404/]]></link>
                <description><![CDATA[<article>
<blockquote class="messageText SelectQuoteContainer ugc baseHtml">
<img src="https://i.ibb.co/ZKkgB1d/Marisa-Turner-Who-s-Gonna-Kiss-That-Man-Remix-Pizza-Express-Radio-Mix-VJ-Ro-Ge-Rs-Video-Edit-mp4-thu.jpg" class="bbCodeImage LbImage" alt="[​IMG]" data-url="https://i.ibb.co/ZKkgB1d/Marisa-Turner-Who-s-Gonna-Kiss-That-Man-Remix-Pizza-Express-Radio-Mix-VJ-Ro-Ge-Rs-Video-Edit-mp4-thu.jpg" style=""> <br>
<br>
<div class="ToggleTriggerAnchor bbCodeSpoilerContainer">
<button type="button" class="button bbCodeSpoilerButton ToggleTrigger Tooltip JsOnly" data-target="> .SpoilerTarget"><span>Spoiler: <span class="SpoilerTitle">MediaInfo</span></span></button>
<div class="SpoilerTarget bbCodeSpoilerText">Marisa Turner - Who's Gonna Kiss That Man (Remix Pizza Express Radio Mix) (VJ-RoGeRs Video Edit).mp4<br>
Format : MPEG-4<br>
Format profile : Base Media / Version 2<br>
Codec ID : mp42 (mp42/mp41)<br>
File size : 269 MiB<br>
Duration : 3 min 38 s<br>
Overall bit rate mode : Variable<br>
Overall bit rate : 10.3 Mb/s<br>
Frame rate : 29.970 FPS<br>
Encoded date : 2020-10-01 21:54:46 UTC<br>
Tagged date : 2020-10-01 21:54:52 UTC<br>
TIM : 00:00:06:02<br>
TSC : 30000<br>
TSZ : 1001<br>
<br>
Video<br>
ID : 1<br>
Format : AVC<br>
Format/Info : Advanced Video Codec<br>
Format profile : Main@L3.1<br>
Format settings : CABAC / 4 Ref Frames<br>
Format settings, CABAC : Yes<br>
Format settings, Reference : 4 frames<br>
Codec ID : avc1<br>
Codec ID/Info : Advanced Video Coding<br>
Duration : 3 min 38 s<br>
Bit rate : 10.0 Mb/s<br>
Width : 720 pixels<br>
Height : 576 pixels<br>
Display aspect ratio : 5:4<br>
Frame rate mode : Constant<br>
Frame rate : 29.970 (30000/1001) FPS<br>
Standard : NTSC<br>
Color space : YUV<br>
Chroma subsampling : 4:2:0<br>
Bit depth : 8 bits<br>
Scan type : Progressive<br>
Bits/(Pixel*Frame) : 0.805<br>
Stream size : 260 MiB (97%)<br>
Language : English<br>
Encoded date : 2020-10-01 21:54:46 UTC<br>
Tagged date : 2020-10-01 21:54:46 UTC<br>
Color range : Limited<br>
Color primaries : BT.601 PAL<br>
Transfer characteristics : BT.470 System B/G<br>
Matrix coefficients : BT.470 System B/G<br>
Codec configuration box : avcC<br>
<br>
Audio<br>
ID : 2<br>
Format : AAC LC<br>
Format/Info : Advanced Audio Codec Low Complexity<br>
Codec ID : mp4a-40-2<br>
Duration : 3 min 38 s<br>
Source duration : 3 min 38 s<br>
Bit rate mode : Variable<br>
Bit rate : 317 kb/s<br>
Maximum bit rate : 407 kb/s<br>
Channel(s) : 2 channels<br>
Channel layout : L R<br>
Sampling rate : 48.0 kHz<br>
Frame rate : 46.875 FPS (1024 SPF)<br>
Compression mode : Lossy<br>
Stream size : 8.25 MiB (3%)<br>
Source stream size : 8.26 MiB (3%)<br>
Language : English<br>
Encoded date : 2020-10-01 21:54:46 UTC<br>
Tagged date : 2020-10-01 21:54:46 UTC</div>
</div><br>
<div class="bbCodeBlock bbCodeVfcHH HiddenContent">
<div class="attribution type">Hidden Content:</div>
<blockquote>You must reply before you can see the hidden data contained here.</blockquote>
</div>
<div class="messageTextEndMarker">&nbsp;</div>
</blockquote>
</article>]]></description>
                <author><![CDATA[DJ-RoGeRs-BS]]></author>
                </item>

                </channel></rss>